<svg width="397" height="80" viewBox="0 0 397 80" fill="none" xmlns="http://www.w3.org/2000/svg">
<g clip-path="url(#clip0_5_4216)">
<path d="M125.526 16.3833H111.366L94.9733 37.0461H94.3477L78.2822 16.3833H63.4181L87.7646 47.7498L63.4181 78.7589H77.5772L125.526 16.3833Z" fill="#F36C38"/>
<path d="M101.199 65.4538L111.367 78.759H125.526L108.388 56.1699L101.199 65.4538Z" fill="#F36C38"/>
<mask id="mask0_5_4216" style="mask-type:luminance" maskUnits="userSpaceOnUse" x="0" y="0" width="397" height="80">
<path d="M396.753 0H0V80H396.753V0Z" fill="white"/>
</mask>
<g mask="url(#mask0_5_4216)">
<path d="M151.56 0V16.3932H168.698V26.0842H151.56V62.6139C151.56 73.9531 165.719 69.4055 168.698 68.075V77.2695C165.223 79.0865 140.251 86.9406 140.251 63.6068V26.0742H131.553L151.56 0Z" fill="white"/>
<path d="M279.509 15.3703V24.1875C274.187 24.1875 266.789 23.9392 258.687 36.9763V78.7487H247.387V16.3831H258.687V24.5449C263.959 16.3831 272.082 15.3604 279.509 15.3604" fill="white"/>
<path d="M321.341 15.3703V24.1875C316.018 24.1875 308.621 23.9392 300.519 36.9763V78.7487H289.209V16.3831H300.519V24.5449C305.791 16.3831 313.913 15.3604 321.341 15.3604" fill="white"/>
<path d="M325.322 47.0844C325.322 37.2247 328.221 29.2813 334.02 23.2344C339.819 17.1874 347.494 14.1689 357.066 14.1689C366.638 14.1689 374.333 17.1974 380.171 23.2344C386.01 29.2813 388.929 37.2247 388.929 47.0844C388.929 56.9442 386.01 64.8876 380.171 70.9345C374.333 76.9814 366.638 79.9999 357.066 79.9999C347.494 79.9999 339.819 76.9814 334.02 70.9345C328.221 64.8876 325.322 56.9442 325.322 47.0844ZM342.778 64.0436C346.878 67.8167 351.654 69.6933 357.125 69.6933C362.596 69.6933 367.372 67.8068 371.473 64.0436C375.574 60.2804 377.619 54.6009 377.619 47.0248C377.619 39.4488 375.564 33.7991 371.473 30.0657C367.382 26.3323 362.596 24.4755 357.125 24.4755C351.654 24.4755 346.878 26.3422 342.778 30.0657C338.677 33.7892 336.621 39.4488 336.621 47.0248C336.621 54.6009 338.677 60.2705 342.778 64.0436Z" fill="white"/>
<path d="M59.3769 47.0844V51.0561H11.4286C12.0938 56.8548 14.2485 61.3627 17.8925 64.5996C21.5366 67.8266 27.0671 69.4451 34.4744 69.4451C41.8816 69.4451 48.7328 67.3798 55.0279 63.2294H55.6535V74.1615C48.6931 78.0538 40.5213 79.9999 31.1183 79.9999C21.7153 79.9999 14.179 77.1204 8.50937 71.3714C2.83977 65.6124 0 57.8279 0 48.0178C0 38.2077 2.52203 30.1153 7.57602 23.7308C12.63 17.3562 19.9975 14.1689 29.6885 14.1689C39.3794 14.1689 46.7469 17.3562 51.8009 23.7308C56.8549 30.1054 59.3769 37.8899 59.3769 47.0844ZM11.4286 41.8616H48.0675C47.7399 35.9041 45.7242 31.3863 42.0405 28.3181C38.3567 25.2599 34.2361 23.7209 29.6785 23.7209C25.121 23.7209 21.0202 25.25 17.3762 28.3181C13.7322 31.3863 11.7463 35.8942 11.4087 41.8616" fill="white"/>
<path d="M236.803 47.0844V51.0561H188.854C189.52 56.8548 191.664 61.3627 195.318 64.5996C198.962 67.8266 204.493 69.4451 211.9 69.4451C219.307 69.4451 226.159 67.3798 232.464 63.2294H233.079V74.1615C226.129 78.0538 217.947 79.9999 208.544 79.9999C199.141 79.9999 191.605 77.1204 185.935 71.3714C180.266 65.6124 177.426 57.8279 177.426 48.0178C177.426 38.2077 179.948 30.1153 185.002 23.7308C190.056 17.3562 197.423 14.1689 207.114 14.1689C216.805 14.1689 224.173 17.3562 229.227 23.7308C234.281 30.1054 236.803 37.8899 236.803 47.0844ZM188.854 41.8616H225.503C225.166 35.9041 223.16 31.3863 219.476 28.3181C215.792 25.2599 211.672 23.7209 207.114 23.7209C202.557 23.7209 198.466 25.25 194.822 28.3181C191.178 31.3863 189.192 35.8942 188.854 41.8616Z" fill="white"/>
<path d="M386.715 21.4373C386.715 20.5437 386.933 19.7096 387.38 18.9351C387.827 18.1606 388.432 17.545 389.217 17.0883C389.991 16.6415 390.835 16.4131 391.729 16.4131C392.622 16.4131 393.456 16.6315 394.231 17.0783C395.005 17.5252 395.621 18.1308 396.068 18.9153C396.515 19.6897 396.743 20.5337 396.743 21.4274C396.743 22.321 396.525 23.1253 396.098 23.8997C395.661 24.6643 395.055 25.2898 394.281 25.7466C393.496 26.2133 392.652 26.4416 391.719 26.4416C390.786 26.4416 389.951 26.2133 389.167 25.7466C388.393 25.2898 387.777 24.6742 387.35 23.8997C386.913 23.1352 386.705 22.3011 386.705 21.4274M387.41 21.4274C387.41 22.1919 387.608 22.9167 387.995 23.582C388.383 24.2572 388.909 24.7834 389.584 25.1608C390.249 25.548 390.974 25.7367 391.739 25.7367C392.503 25.7367 393.228 25.5381 393.893 25.1608C394.559 24.7735 395.085 24.2473 395.472 23.5919C395.859 22.9267 396.058 22.2118 396.058 21.4274C396.058 20.6429 395.859 19.938 395.472 19.2727C395.085 18.6075 394.559 18.0812 393.903 17.694C393.238 17.3067 392.523 17.1081 391.739 17.1081C390.954 17.1081 390.249 17.2968 389.584 17.684C388.919 18.0713 388.393 18.5975 388.005 19.2529C387.618 19.9082 387.419 20.633 387.419 21.4174M393.774 20.2061C393.774 20.5635 393.685 20.8812 393.486 21.1493C393.298 21.4274 393.03 21.6259 392.692 21.765L394.281 24.3962H393.159L391.778 22.033H390.875V24.3962H389.882V18.4486H391.62C392.354 18.4486 392.9 18.5975 393.248 18.8855C393.595 19.1734 393.764 19.6202 393.764 20.2061M390.865 21.2188H391.58C391.937 21.2188 392.225 21.1295 392.434 20.9408C392.652 20.7621 392.761 20.5238 392.761 20.2358C392.761 19.8983 392.662 19.66 392.473 19.5209C392.285 19.372 391.977 19.3025 391.57 19.3025H390.865V21.2188Z" fill="white"/>
</g>
</g>
<defs>
<clipPath id="clip0_5_4216">
<rect width="396.753" height="80" fill="white"/>
</clipPath>
</defs>
</svg>
