<?xml version="1.0" ?><svg data-name="Layer 1" id="Layer_1" viewBox="0 0 64 64" xmlns="http://www.w3.org/2000/svg"><path d="M10,61H26.59l1.71,1.71c.19,.19,.44,.29,.71,.29h6c.27,0,.52-.11,.71-.29l1.71-1.71h16.59c.55,0,1-.45,1-1V30c0-.55-.45-1-1-1h-3v-2c0-.43-.28-.81-.68-.95l-.73-.24c.27-1.26,.41-2.53,.41-3.81,0-2.91-.71-5.77-2.05-8.32,.65-.71,1.05-1.64,1.05-2.68,0-2.21-1.79-4-4-4-.8,0-1.53,.24-2.16,.64-2.05-1.55-4.41-2.64-6.9-3.19-.27-1.94-1.93-3.45-3.94-3.45s-3.67,1.51-3.94,3.45c-2.49,.55-4.84,1.64-6.9,3.19-.62-.4-1.36-.64-2.16-.64-2.21,0-4,1.79-4,4,0,1.03,.4,1.97,1.05,2.68-1.34,2.55-2.05,5.41-2.05,8.32,0,1.28,.14,2.55,.41,3.81l-.73,.24c-.41,.14-.68,.52-.68,.95v2h-3c-.55,0-1,.45-1,1v30c0,.55,.45,1,1,1Zm21-5.91c-2.14-3.39-5.79-5.73-10-6.05V25.04c5.6,.51,10,5.23,10,10.96v19.09Zm18.76-.12c.3,.07,.61,0,.86-.19s.38-.48,.38-.79V31h2v28h-16c-.27,0-.52,.11-.71,.29l-1.71,1.71h-.82c5.63-8.43,15.55-6.14,15.99-6.03Zm-16.76,.12v-19.09c0-5.73,4.4-10.45,10-10.96v23.99c-4.21,.32-7.86,2.66-10,6.05Zm16-2.27c-2.83-.37-9.91-.62-15.08,4.8,1.7-3.89,5.58-6.62,10.08-6.62,.55,0,1-.45,1-1V26.39l4,1.33v25.1Zm-4-43.82c1.1,0,2,.9,2,2s-.9,2-2,2-2-.9-2-2,.9-2,2-2Zm-9.28-2.56c2.07,.49,4.04,1.4,5.77,2.68-.24,.44-.39,.94-.45,1.46l-4.54,5.29c-.66-1.4-1.95-2.45-3.51-2.77v-4.24c1.25-.32,2.26-1.23,2.72-2.41Zm-.72,11.56c0,1.65-1.35,3-3,3s-3-1.35-3-3,1.35-3,3-3,3,1.35,3,3Zm-3-15c1.1,0,2,.9,2,2s-.9,2-2,2-2-.9-2-2,.9-2,2-2Zm-3.72,3.44c.46,1.19,1.47,2.09,2.72,2.41v4.24c-1.56,.32-2.84,1.37-3.51,2.77l-4.54-5.29c-.06-.53-.21-1.02-.45-1.46,1.73-1.28,3.7-2.19,5.77-2.68Zm-9.28,2.56c1.1,0,2,.9,2,2s-.9,2-2,2-2-.9-2-2,.9-2,2-2Zm-1.27,5.77c.4,.14,.82,.23,1.27,.23,1.46,0,2.73-.8,3.43-1.97l4.62,5.39c.22,2.56,2.34,4.58,4.96,4.58s4.74-2.02,4.96-4.58l4.62-5.39c.7,1.17,1.97,1.97,3.43,1.97,.45,0,.87-.09,1.27-.23,1.13,2.22,1.73,4.7,1.73,7.23,0,1.06-.11,2.13-.31,3.17l-2.69-.9v-.28c0-.55-.45-1-1-1-5.4,0-10.04,3.31-12,8-1.96-4.69-6.6-8-12-8-.55,0-1,.45-1,1v.28l-2.69,.9c-.21-1.05-.31-2.11-.31-3.17,0-2.53,.6-5,1.73-7.23Zm-2.73,12.95l4-1.33v23.61c0,.55,.45,1,1,1,4.51,0,8.39,2.73,10.09,6.62-5.18-5.42-12.26-5.17-15.09-4.8V27.72Zm-4,3.28h2v23c0,.31,.14,.6,.38,.79,.24,.19,.56,.26,.86,.18,.11-.03,10.31-2.42,15.99,6.03h-.82l-1.71-1.71c-.19-.19-.44-.29-.71-.29H11V31Z"/></svg>