<?xml version="1.0" encoding="UTF-8"?> <svg xmlns="http://www.w3.org/2000/svg" width="96" height="88" viewBox="0 0 96 88" fill="none"><path d="M53.7877 -0.000976562C60.9412 -0.000976562 67.6733 -0.000976562 70.8755 1.19058C73.7083 2.24571 76.3163 3.97229 78.5305 6.25521C81.6708 9.49521 84.0733 14.02 86.9028 19.4134C91.0711 27.3591 97.1379 39.1206 94.7603 48.5457C93.743 52.5787 91.8076 56.2642 89.9089 59.8815C88.3576 62.8391 86.831 65.1333 84.3811 68.1456C76.167 78.2457 66.2963 81.7003 56.3242 86.1489C51.0374 88.5064 44.9363 88.6556 39.6308 86.3386C29.6161 81.9689 19.8836 78.2615 11.6608 68.1562C9.49022 65.4888 7.76164 62.9907 6.13464 59.8879C4.23381 56.2663 2.2978 52.5787 1.27997 48.5457C-1.1743 38.8166 4.78525 27.55 9.14017 19.4028C12.0094 14.035 14.3375 9.52931 17.5098 6.25521C19.724 3.97229 22.332 2.24571 25.1648 1.19058C28.367 -0.000976562 35.0991 -0.000976562 42.2526 -0.000976562H53.7877Z" fill="#0049D4"></path><path fill-rule="evenodd" clip-rule="evenodd" d="M40.7735 19.3575C41.6189 18.8372 42.4117 18.3492 43.1369 17.8992L45.9098 22.3673C45.1574 22.8343 44.3448 23.3345 43.486 23.8633C38.5182 26.9217 32.0042 30.9321 26.6499 34.9472C23.4977 37.3109 20.9017 39.5646 19.2843 41.5212C18.4739 42.5015 18.0144 43.2831 17.8081 43.8577C17.7659 43.9753 17.7372 44.0751 17.7181 44.1593C18.0209 44.2262 18.4528 44.2885 19.038 44.3233C20.7417 44.4247 23.1848 44.2664 26.1995 43.85C28.8229 43.4877 31.7895 42.9429 34.9367 42.2541C38.2422 39.8663 41.8265 37.4771 45.4441 35.2284C52.476 30.8573 59.7573 26.9398 65.5116 24.5606C68.3594 23.383 70.9955 22.5131 73.1058 22.2108C74.1439 22.0621 75.2819 22.0148 76.329 22.2891C77.4645 22.5865 78.6825 23.3355 79.2277 24.8073C80.2402 27.5407 78.5726 29.9031 77.0533 31.3794C75.4021 32.9838 72.9775 34.5195 70.2069 35.9542C64.6153 38.8497 56.9099 41.6883 49.1105 44.01C45.0973 45.2046 41.0206 46.2737 37.1468 47.1495C34.4858 49.1019 32.0573 51.027 30.0056 52.8368C27.6511 54.9137 25.8961 56.7494 24.8456 58.2294C24.3192 58.971 24.0445 59.5201 23.9269 59.8826C23.9253 59.8875 23.9238 59.8923 23.9223 59.897C24.1327 59.9868 24.5354 60.1127 25.2621 60.2006C26.8185 60.3887 29.0793 60.2859 31.9319 59.8745C37.5912 59.0583 44.9378 57.1264 52.2308 54.7108C59.5148 52.2982 66.6116 49.4476 71.7659 46.8463C74.3601 45.537 76.3551 44.344 77.6244 43.3559C78.2681 42.8548 78.6082 42.4955 78.7547 42.2928C78.7735 42.2667 78.7868 42.2468 78.7955 42.2328C78.7547 42.3171 78.646 42.6065 78.736 43.0416L83.8856 41.9763C84.1865 43.4307 83.5433 44.6445 83.0168 45.373C82.4543 46.1513 81.6784 46.8643 80.8546 47.5055C79.1889 48.8022 76.843 50.1743 74.1352 51.5409C68.6856 54.2913 61.3343 57.2352 53.8843 59.7028C46.4434 62.1674 38.7703 64.2013 32.6825 65.0793C29.6616 65.515 26.8671 65.6915 24.6311 65.4212C22.6407 65.1807 19.9211 64.4366 18.9259 61.8889C18.4246 60.6059 18.5825 59.3151 18.925 58.2594C19.2679 57.2028 19.862 56.1653 20.5574 55.1856C21.8958 53.2999 23.8879 51.2448 26.2368 49.1505C23.3638 49.5225 20.775 49.6946 18.7255 49.5726C17.6307 49.5075 16.5448 49.3514 15.606 49.0166C14.7198 48.7006 13.504 48.0568 12.9023 46.7049C12.1947 45.1151 12.3548 43.4849 12.8586 42.0811C13.3513 40.7087 14.2225 39.3908 15.2313 38.1706C17.2521 35.7261 20.2483 33.1746 23.4951 30.74C29.0627 26.565 35.8213 22.4054 40.7735 19.3575ZM78.8097 42.2073C78.8104 42.2071 78.8064 42.2155 78.7955 42.2328C78.8036 42.2162 78.809 42.2075 78.8097 42.2073ZM23.8652 60.1526C23.8651 60.1526 23.8651 60.1504 23.8653 60.1459C23.8654 60.1503 23.8653 60.1525 23.8652 60.1526ZM51.2673 37.8393C57.5658 35.8176 63.4442 33.5343 67.7888 31.2845C70.4024 29.9311 72.2892 28.6764 73.3887 27.608C73.4384 27.5597 73.4853 27.513 73.5296 27.4679C72.0894 27.7222 70.053 28.3732 67.5209 29.4202C62.9202 31.3225 57.1422 34.3366 51.2673 37.8393ZM74.2656 26.4347C74.2673 26.4344 74.2674 26.4462 74.2611 26.471C74.2608 26.4473 74.2639 26.435 74.2656 26.4347ZM17.2504 44.0118C17.251 44.0116 17.2596 44.0156 17.2744 44.0245C17.2572 44.0166 17.2498 44.0121 17.2504 44.0118ZM17.703 44.5586C17.7042 44.5612 17.7054 44.5639 17.7065 44.5666L17.7065 44.5664C17.7062 44.5658 17.7048 44.5633 17.703 44.5586Z" fill="#021B41"></path><path d="M51.4479 17.8486C55.6993 17.8486 59.7001 17.8486 61.6031 18.5568C63.2867 19.1838 64.8366 20.2099 66.1525 21.5667C68.0188 23.4922 69.4466 26.1812 71.1281 29.3865C73.6053 34.1086 77.2108 41.0984 75.7978 46.6997C75.1932 49.0965 74.043 51.2868 72.9146 53.4365C71.9927 55.1942 71.0854 56.5576 69.6295 58.3478C64.7479 64.3503 58.8818 66.4033 52.9554 69.0471C49.8135 70.4482 46.1876 70.5369 43.0346 69.1599C37.0829 66.563 31.2989 64.3597 26.4121 58.3542C25.1222 56.7689 24.0949 55.2843 23.1279 53.4403C21.9983 51.288 20.8477 49.0965 20.2428 46.6997C18.7843 40.9177 22.326 34.222 24.9141 29.3802C26.6193 26.1901 28.0029 23.5124 29.8882 21.5667C31.204 20.2099 32.754 19.1838 34.4375 18.5568C36.3405 17.8486 40.3414 17.8486 44.5927 17.8486H51.4479Z" fill="#FFC72C"></path><path d="M50.6574 13.9643C49.7652 14.5294 49.5001 15.7107 50.0651 16.6029C50.6302 17.495 51.8116 17.7602 52.7037 17.1951C53.5959 16.63 53.861 15.4487 53.2959 14.5565C52.7309 13.6644 51.5495 13.3992 50.6574 13.9643Z" fill="#022C6A"></path><path d="M47.5088 16.6704L41.7234 15.0509C39.5861 14.4526 38.8349 11.8078 40.3387 10.1753C41.6626 8.73808 43.9896 8.94777 45.0353 10.5986L48.2501 15.6738C48.5763 16.1888 48.0958 16.8348 47.5088 16.6704Z" fill="#022C6A"></path><path d="M48.9129 18.8869L47.9045 24.8094C47.532 26.9974 49.6021 28.8069 51.7206 28.1451C53.5859 27.5623 54.3907 25.369 53.3452 23.7181L50.1308 18.6426C49.8046 18.1276 49.0152 18.286 48.9129 18.8869Z" fill="#022C6A"></path><path d="M47.6006 18.9363C47.6894 18.4434 47.3861 17.9646 46.9026 17.8342L44.6499 17.227C44.4288 17.1674 44.1927 17.2032 43.9992 17.3258L40.3775 19.6198C39.6717 20.0668 39.2541 20.8531 39.279 21.6883L39.3093 22.7025C39.3222 23.1342 39.5695 23.5245 39.9542 23.7207L40.8582 24.1815C41.6026 24.561 42.4919 24.5195 43.1978 24.0724L46.8194 21.7785C47.013 21.6559 47.1462 21.4578 47.1869 21.2324L47.6006 18.9363Z" fill="#022C6A"></path><path fill-rule="evenodd" clip-rule="evenodd" d="M46.7264 18.7647C47.4824 19.983 47.1077 21.5834 45.8895 22.3394C45.1373 22.8063 44.3248 23.3065 43.4661 23.8352C38.4984 26.8935 31.9829 30.9049 26.6272 34.9209C23.4744 37.2851 20.8759 39.5407 19.2559 41.5004C18.4442 42.4822 17.9821 43.2672 17.774 43.8469C17.5815 44.3833 17.6645 44.5614 17.6729 44.5795C17.6731 44.5799 17.6733 44.5802 17.6734 44.5805C18.2564 45.8903 17.6672 47.4248 16.3573 48.0078C15.0475 48.5909 13.513 48.0016 12.93 46.6918C12.2268 45.112 12.3853 43.4911 12.8872 42.0928C13.378 40.7254 14.2467 39.4109 15.2542 38.1922C17.2725 35.7507 20.2661 33.2012 23.5123 30.767C29.0786 26.5931 35.8356 22.4344 40.7879 19.3864C41.6334 18.866 42.4263 18.378 43.1517 17.9278C44.3699 17.1718 45.9704 17.5465 46.7264 18.7647ZM76.3179 22.3217C77.446 22.6172 78.6533 23.3604 79.1937 24.8193C79.6918 26.1638 79.0056 27.6574 77.6611 28.1554C76.5734 28.5583 75.388 28.1861 74.7112 27.3174C74.5232 27.3141 74.2409 27.3269 73.8442 27.3837C72.3884 27.5923 70.2332 28.2619 67.5055 29.3898C62.1079 31.6216 55.0919 35.3825 48.2 39.6666C41.3088 43.9503 34.664 48.6812 29.9809 52.8122C27.6256 54.8898 25.8684 56.7274 24.8157 58.2105C24.2882 58.9536 24.0116 59.5058 23.8925 59.8727C23.8553 59.9873 23.8398 60.0632 23.8334 60.1067C24.2724 61.4115 23.6129 62.8444 22.3168 63.3507C20.9814 63.8724 19.4758 63.2127 18.9541 61.8772C18.4567 60.6038 18.6128 59.3214 18.954 58.2701C19.2954 57.2178 19.8874 56.1835 20.5818 55.2052C21.9729 53.2455 24.0721 51.101 26.5462 48.9186C31.5218 44.5295 38.4271 39.6281 45.4589 35.2571C52.4899 30.8865 59.7696 26.97 65.5216 24.5917C68.3686 23.4145 71.0017 22.5459 73.1078 22.2441C74.144 22.0957 75.2769 22.049 76.3179 22.3217ZM23.8292 60.1526C23.8291 60.1527 23.8291 60.1506 23.8293 60.1462C23.8294 60.1504 23.8293 60.1526 23.8292 60.1526ZM80.4477 38.2525C82.2332 38.9366 83.4892 40.3499 83.9772 42.3197C84.322 43.7114 83.4733 45.1191 82.0816 45.4639C80.6899 45.8086 79.2822 44.9599 78.9375 43.5682C78.8468 43.2022 78.7478 43.1613 78.59 43.1008C78.2499 42.9705 77.5247 42.879 76.2542 43.0967C73.739 43.5278 70.3041 44.945 66.5701 46.8856C59.1774 50.7277 51.5657 56.1088 49.7573 57.5381C48.6324 58.4271 46.9999 58.2359 46.1108 57.111C45.2218 55.9861 45.413 54.3536 46.5379 53.4646C48.5652 51.8624 56.4511 46.2931 64.1757 42.2785C68.0004 40.2908 72.029 38.5531 75.3771 37.9793C77.0382 37.6946 78.8445 37.6381 80.4477 38.2525Z" fill="url(#paint0_linear_4199_31948)"></path><defs><linearGradient id="paint0_linear_4199_31948" x1="19.6757" y1="50.7686" x2="75.1189" y2="30.4332" gradientUnits="userSpaceOnUse"><stop stop-color="#011A40"></stop><stop offset="0.52" stop-color="#023074"></stop><stop offset="1" stop-color="#011A40"></stop></linearGradient></defs></svg> 